<svg width="150" height="31" viewBox="0 0 150 31" fill="none" xmlns="http://www.w3.org/2000/svg">
<path d="M6.12 24.72H17.92V30H0.6V2H17.72V7.28H6.12V13.24H16.72V18.44H6.12V24.72ZM33.9309 10H39.6109L32.0109 30H26.1309L18.5309 10H24.2109L29.0509 24L33.9309 10ZM57.5578 27.52C55.5045 29.5467 52.9978 30.56 50.0378 30.56C47.0778 30.56 44.5711 29.5467 42.5178 27.52C40.4911 25.4667 39.4778 22.96 39.4778 20C39.4778 17.04 40.4911 14.5467 42.5178 12.52C44.5711 10.4667 47.0778 9.44 50.0378 9.44C52.9978 9.44 55.5045 10.4667 57.5578 12.52C59.6111 14.5467 60.6378 17.04 60.6378 20C60.6378 22.96 59.6111 25.4667 57.5578 27.52ZM46.1578 23.96C47.1978 25 48.4911 25.52 50.0378 25.52C51.5845 25.52 52.8778 25 53.9178 23.96C54.9578 22.92 55.4778 21.6 55.4778 20C55.4778 18.4 54.9578 17.08 53.9178 16.04C52.8778 15 51.5845 14.48 50.0378 14.48C48.4911 14.48 47.1978 15 46.1578 16.04C45.1445 17.08 44.6378 18.4 44.6378 20C44.6378 21.6 45.1445 22.92 46.1578 23.96ZM63.4678 30V0.799999H68.6278V30H63.4678ZM90.8706 2V4H82.0706V30H79.9106V4H71.1106V2H90.8706ZM98.6784 9.56C101.612 9.56 103.985 10.6 105.798 12.68C107.638 14.76 108.558 17.2267 108.558 20.08C108.558 20.1867 108.545 20.3467 108.518 20.56C108.518 20.7733 108.518 20.9333 108.518 21.04H90.3984C90.6384 23.28 91.5318 25.0933 93.0784 26.48C94.6518 27.84 96.5851 28.52 98.8784 28.52C100.478 28.52 101.878 28.1867 103.078 27.52C104.278 26.8533 105.185 25.9733 105.798 24.88L107.558 25.92C106.732 27.3067 105.558 28.4133 104.038 29.24C102.518 30.04 100.785 30.44 98.8384 30.44C95.7718 30.44 93.2518 29.4667 91.2784 27.52C89.3051 25.5467 88.3184 23.04 88.3184 20C88.3184 17.0133 89.2784 14.5333 91.1984 12.56C93.1451 10.56 95.6384 9.56 98.6784 9.56ZM98.6784 11.48C96.4118 11.48 94.5184 12.1867 92.9984 13.6C91.4784 15.0133 90.6118 16.84 90.3984 19.08H106.478C106.265 16.7067 105.412 14.8533 103.918 13.52C102.452 12.16 100.705 11.48 98.6784 11.48ZM120.793 30.44C117.78 30.44 115.273 29.44 113.273 27.44C111.273 25.44 110.273 22.96 110.273 20C110.273 17.04 111.273 14.56 113.273 12.56C115.273 10.56 117.78 9.56 120.793 9.56C122.74 9.56 124.5 10.0267 126.073 10.96C127.646 11.8667 128.793 13.1067 129.513 14.68L127.873 15.64C127.286 14.36 126.353 13.3467 125.073 12.6C123.82 11.8533 122.393 11.48 120.793 11.48C118.393 11.48 116.38 12.3067 114.753 13.96C113.126 15.5867 112.313 17.6 112.313 20C112.313 22.4 113.126 24.4267 114.753 26.08C116.38 27.7067 118.393 28.52 120.793 28.52C122.393 28.52 123.82 28.1467 125.073 27.4C126.353 26.6533 127.326 25.64 127.993 24.36L129.673 25.36C128.873 26.9067 127.673 28.1467 126.073 29.08C124.5 29.9867 122.74 30.44 120.793 30.44ZM141.615 9.56C143.988 9.56 145.868 10.2933 147.255 11.76C148.668 13.2 149.375 15.1333 149.375 17.56V30H147.335V17.56C147.335 15.6933 146.815 14.2133 145.775 13.12C144.762 12.0267 143.322 11.48 141.455 11.48C139.402 11.48 137.722 12.16 136.415 13.52C135.108 14.88 134.455 16.8533 134.455 19.44V30H132.455V2H134.455V13.8C135.895 10.9733 138.282 9.56 141.615 9.56Z" fill="white"/>
</svg>
